<?xml version="1.0" standalone="no"?>
<!DOCTYPE svg PUBLIC "-//W3C//DTD SVG 20010904//EN"
 "http://www.w3.org/TR/2001/REC-SVG-20010904/DTD/svg10.dtd">
<svg version="1.0" xmlns="http://www.w3.org/2000/svg"
 width="500.000000pt" height="500.000000pt" viewBox="0 0 500.000000 500.000000"
 preserveAspectRatio="xMidYMid meet">
<metadata>
Created by potrace 1.15, written by Peter Selinger 2001-2017
</metadata>
<g transform="translate(0.000000,500.000000) scale(0.100000,-0.100000)"
fill="#000000" stroke="none">
<path d="M2165 4984 c-631 -85 -1222 -420 -1617 -914 -237 -297 -421 -679
-497 -1030 -70 -328 -70 -752 0 -1080 57 -261 206 -613 355 -835 413 -617
1047 -1015 1767 -1110 157 -20 497 -20 654 0 635 84 1227 417 1625 915 237
297 421 679 497 1030 70 328 70 752 0 1080 -57 261 -206 613 -355 835 -413
617 -1047 1015 -1767 1110 -147 19 -520 19 -662 -1z m511 -74 c357 -28 694
-128 989 -293 635 -355 1080 -969 1210 -1673 143 -775 -92 -1555 -640 -2123
-816 -846 -2114 -980 -3090 -320 -532 360 -904 927 -1020 1555 -143 775 92
1555 640 2123 498 516 1205 787 1911 731z"/>
<path d="M2235 4798 c-413 -46 -852 -230 -1180 -493 -96 -76 -273 -253 -352
-350 -205 -253 -363 -569 -443 -884 -56 -222 -64 -294 -64 -571 0 -277 8 -349
64 -571 78 -309 235 -625 435 -874 76 -96 253 -273 350 -352 338 -274 774
-455 1207 -502 125 -14 371 -14 496 0 433 47 869 228 1207 502 97 79 274 256
350 352 200 249 357 565 435 874 56 222 64 294 64 571 0 277 -8 349 -64 571
-80 315 -238 631 -443 884 -79 97 -256 274 -352 350 -334 268 -770 448 -1197
494 -114 13 -399 12 -513 -1z m63 -588 c44 -27 72 -76 72 -127 0 -59 -18 -91
-62 -114 -96 -49 -197 7 -206 114 -4 47 -1 57 24 86 50 60 115 76 172 41z
m1461 -386 c67 -9 144 -22 169 -29 149 -45 283 -223 313 -415 37 -243 -124
-489 -369 -563 -62 -19 -103 -21 -534 -26 -699 -9 -826 1 -975 74 -115 57
-201 173 -239 324 -32 128 -6 219 72 256 75 35 150 -16 179 -123 42 -151 82
-205 176 -238 50 -18 93 -19 639 -19 543 0 588 1 632 18 93 36 155 146 145
257 -10 111 -64 175 -179 213 -59 19 -87 20 -418 21 -195 1 -362 5 -371 9 -51
26 -61 174 -14 220 43 44 487 55 774 21z m-1258 -9 c97 -20 165 -58 245 -139
83 -83 119 -148 135 -243 16 -91 -5 -170 -61 -225 -87 -88 -170 -27 -215 159
-22 92 -61 148 -123 176 -47 22 -53 22 -652 22 -672 0 -651 2 -726 -67 -59
-54 -78 -108 -72 -202 7 -113 60 -188 151 -218 20 -7 169 -11 392 -12 386 -1
403 -3 449 -54 47 -53 23 -158 -44 -197 -33 -19 -51 -20 -395 -20 -399 1 -454
7 -572 65 -243 119 -335 491 -182 735 91 146 221 219 418 236 159 13 1174 1
1252 -16z m-1166 -1516 c34 -12 40 -19 47 -54 5 -22 7 -68 6 -101 l-3 -62 -75
30 c-87 35 -172 46 -223 29 -51 -17 -112 -88 -132 -153 -23 -77 -30 -204 -15
-295 23 -145 78 -223 182 -257 92 -29 186 -15 332 49 31 14 56 21 56 17 0 -24
-60 -216 -69 -222 -24 -14 -284 -42 -356 -38 -102 7 -188 49 -275 137 -120
121 -177 269 -167 436 17 262 158 435 402 491 72 16 232 12 290 -7z m2870 -10
c25 -6 48 -15 50 -19 3 -5 2 -47 -1 -94 l-7 -85 -46 23 c-62 31 -102 39 -161
31 -45 -6 -50 -9 -65 -47 -19 -48 -13 -87 18 -116 12 -11 69 -46 127 -77 180
-96 235 -171 235 -325 0 -110 -26 -171 -101 -239 -82 -75 -143 -95 -284 -95
-97 0 -124 3 -174 23 -53 21 -60 28 -82 76 -23 50 -49 164 -40 173 3 2 32 -12
66 -32 73 -43 166 -76 212 -76 43 1 113 33 127 58 16 31 13 73 -8 109 -21 34
-69 69 -176 128 -139 77 -202 164 -213 292 -6 84 12 143 61 199 73 83 173 117
324 109 50 -2 112 -10 138 -16z m-1710 -13 c94 -29 154 -121 155 -234 0 -74
-14 -105 -69 -155 l-41 -37 28 -14 c34 -18 85 -72 105 -111 23 -46 40 -154 32
-209 -17 -131 -111 -211 -284 -242 -79 -14 -308 -18 -397 -8 l-50 6 12 62 c46
226 46 783 -1 918 l-12 37 41 4 c22 3 129 3 236 2 144 -2 208 -7 245 -19z
m-599 -1 c-3 -8 -13 -54 -23 -102 -25 -126 -25 -652 0 -795 9 -54 17 -100 17
-103 0 -3 -75 -5 -166 -5 l-166 0 5 23 c26 103 32 194 31 497 -1 284 -3 336
-20 413 l-20 87 174 0 c150 0 173 -2 168 -15z m1204 11 c0 -2 -8 -33 -17 -68
-15 -53 -17 -111 -18 -373 0 -279 2 -314 18 -346 22 -44 57 -64 110 -63 53 2
91 42 106 113 6 30 11 157 11 301 0 234 -7 319 -36 418 l-6 22 171 0 171 0
-10 -26 c-41 -107 -52 -398 -30 -769 10 -167 14 -192 31 -207 10 -9 19 -19 19
-22 0 -10 -267 -7 -293 3 -16 6 -28 21 -32 40 -4 17 -9 31 -12 31 -3 0 -19
-11 -35 -25 -176 -149 -400 -59 -437 175 -6 37 -10 197 -9 365 2 301 -1 334
-37 418 -7 16 5 17 164 17 94 0 171 -2 171 -4z"/>
<path d="M2280 2081 c0 -32 -3 -86 -7 -121 l-6 -63 39 7 c58 10 84 44 84 112
0 68 -12 92 -55 110 -52 21 -55 19 -55 -45z"/>
<path d="M2266 1633 c-10 -184 10 -224 98 -202 25 6 50 17 56 24 21 25 30 114
19 190 -11 73 -12 74 -50 89 -22 9 -57 16 -78 16 l-38 0 -7 -117z"/>
</g>
</svg>
