<svg id="Layer_1" data-name="Layer 1" xmlns="http://www.w3.org/2000/svg" xmlns:xlink="http://www.w3.org/1999/xlink" viewBox="0 0 512 512"><defs><style>.cls-1,.cls-2{fill:none;}.cls-1{clip-rule:evenodd;}.cls-3{clip-path:url(#clip-path);}.cls-4{clip-path:url(#clip-path-2);}.cls-5{fill:#5da9ff;}.cls-6{clip-path:url(#clip-path-3);}.cls-7{clip-path:url(#clip-path-4);}.cls-8{fill:#45c8fe;}.cls-9{clip-path:url(#clip-path-5);}.cls-10{clip-path:url(#clip-path-6);}.cls-11{fill:#6d95ff;}.cls-12{clip-path:url(#clip-path-7);}.cls-13{clip-path:url(#clip-path-8);}.cls-14{fill:#7e7fff;}.cls-15{clip-path:url(#clip-path-9);}.cls-16{clip-path:url(#clip-path-10);}.cls-17{fill:#8e6bff;}.cls-18{clip-path:url(#clip-path-11);}.cls-19{clip-path:url(#clip-path-12);}.cls-20{fill:#a367ff;}</style><clipPath id="clip-path"><polygon class="cls-1" points="271.81 197.05 226.81 143.43 150.21 207.71 271.81 197.05"/></clipPath><clipPath id="clip-path-2"><rect class="cls-2" x="-0.59" y="-0.61" width="512" height="512" transform="translate(-104.41 223.93) rotate(-40)"/></clipPath><clipPath id="clip-path-3"><polygon class="cls-1" points="271.81 197.05 226.81 143.43 303.41 79.15 271.81 197.05"/></clipPath><clipPath id="clip-path-4"><rect class="cls-2" x="0.4" y="-1.78" width="512" height="512" transform="translate(-103.42 224.29) rotate(-40)"/></clipPath><clipPath id="clip-path-5"><polygon class="cls-1" points="271.81 197.05 240.19 314.95 150.21 207.71 271.81 197.05"/></clipPath><clipPath id="clip-path-6"><rect class="cls-2" x="-1.34" y="0.21" width="512" height="512" transform="translate(-105.11 223.64) rotate(-40)"/></clipPath><clipPath id="clip-path-7"><polygon class="cls-1" points="240.19 314.95 361.8 304.3 271.81 197.05 240.19 314.95"/></clipPath><clipPath id="clip-path-8"><rect class="cls-2" x="0.29" y="0.8" width="512" height="512" transform="translate(-105.11 224.82) rotate(-40)"/></clipPath><clipPath id="clip-path-9"><polygon class="cls-1" points="240.19 314.95 285.19 368.57 361.8 304.3 240.19 314.95"/></clipPath><clipPath id="clip-path-10"><rect class="cls-2" x="-0.48" y="1.44" width="512" height="512" transform="translate(-105.7 224.48) rotate(-40)"/></clipPath><clipPath id="clip-path-11"><polygon class="cls-1" points="240.19 314.95 285.19 368.57 208.59 432.85 240.19 314.95"/></clipPath><clipPath id="clip-path-12"><rect class="cls-2" x="-1.29" y="2.6" width="512" height="512" transform="translate(-106.63 224.23) rotate(-40)"/></clipPath></defs><title>sense_final_transparent</title><g class="cls-3"><g class="cls-4"><rect class="cls-5" x="156" y="162.38" width="110" height="80" transform="translate(-80.72 182.98) rotate(-40)"/></g></g><g class="cls-6"><g class="cls-7"><rect class="cls-8" x="232.61" y="98.1" width="110" height="80" transform="translate(-21.48 217.18) rotate(-40)"/></g></g><g class="cls-9"><g class="cls-10"><rect class="cls-11" x="178.5" y="154.19" width="110" height="150" transform="translate(-92.69 203.71) rotate(-40)"/></g></g><g class="cls-12"><g class="cls-13"><rect class="cls-14" x="223.5" y="207.81" width="110" height="150" transform="translate(-116.63 245.18) rotate(-40)"/></g></g><g class="cls-15"><g class="cls-16"><rect class="cls-17" x="246" y="269.62" width="110" height="80" transform="translate(-128.6 265.91) rotate(-40)"/></g></g><g class="cls-18"><g class="cls-19"><rect class="cls-20" x="169.39" y="333.9" width="110" height="80" transform="translate(-187.84 231.71) rotate(-40)"/></g></g></svg>